<svg xmlns="http://www.w3.org/2000/svg" viewBox="0 0 184.95 155.76"><defs><style>.cls-1,.cls-3{fill:#fff;}.cls-2{fill:#00abfb;stroke:#fff;stroke-linecap:round;stroke-linejoin:round;stroke-width:2px;}.cls-3{font-size:33.82px;font-family:FranklinGothic-Medium, Franklin Gothic Medium;}</style></defs><title>Recurso 1</title><g id="Capa_2" data-name="Capa 2"><g id="OBJECTS"><path class="cls-1" d="M77.38,23.06h7c1.4.19,2.8.38,4.19.55a55.48,55.48,0,0,1,18.51,5.74,57.37,57.37,0,0,1,20.82,17.94,56.62,56.62,0,0,1,10.26,26l.54,4.1v7c-.06.27-.13.54-.17.81-.44,2.88-.77,5.79-1.35,8.65a50.4,50.4,0,0,1-4.76,13.24,57.7,57.7,0,0,1-18,20.83,56.63,56.63,0,0,1-25.9,10.24l-4.19.55h-7l-4.19-.55a55.31,55.31,0,0,1-18.58-5.77,57.52,57.52,0,0,1-20.75-17.91A56.72,56.72,0,0,1,23.61,88.6c-.18-1.4-.36-2.8-.55-4.2v-7c.06-.27.13-.53.18-.8.43-2.86.71-5.75,1.33-8.56a56,56,0,0,1,13.07-25.5A57.79,57.79,0,0,1,73.19,23.61Zm44.09,43.37C117.05,52.29,100.93,36,77.68,37.66A42,42,0,0,0,48.94,51.8a41.56,41.56,0,0,0-8.73,14.63ZM88,123.42c20-2.88,36.62-21.6,36.13-42.46a2,2,0,0,0-.35,0,30.14,30.14,0,0,0-13.57,3.38A38.08,38.08,0,0,0,94.44,99.86a45.45,45.45,0,0,0-5.54,16C88.54,118.35,88.33,120.83,88,123.42Zm-14.35,0c-.19-2.05-.31-4-.57-6a46.07,46.07,0,0,0-9.31-22.85c-5.54-7.08-12.55-11.78-21.5-13.33-1.55-.27-3.14-.31-4.73-.46C37.36,102.55,54.09,120.51,73.69,123.43ZM88.1,81a7.21,7.21,0,1,0-7.35,7.07A7.18,7.18,0,0,0,88.1,81Z" transform="translate(-1.92 -6.1)"/><path class="cls-2" d="M2.92,107.45S28.36,91.69,87.13,93.63s71.81,12.15,71.81,12.15l-10.85,36.15s-67.21-22.45-131,.31Z" transform="translate(-1.92 -6.1)"/><text class="cls-3" transform="translate(43.63 121.5) rotate(-7.48)">R</text><text class="cls-3" transform="translate(66.1 118.64) rotate(-1.09)">U</text><text class="cls-3" transform="translate(87.41 118.52) rotate(3.85)">I</text><text class="cls-3" transform="translate(97.63 119.05) rotate(8.88)">Z</text><path class="cls-1" d="M17,42.09a14.88,14.88,0,0,1,1.38-2.5A4.74,4.74,0,0,1,21,37.35a2.87,2.87,0,0,1,2.31.47,3,3,0,0,1,1.23,3.42l0,0a2.91,2.91,0,0,1,2.86-.11,18.54,18.54,0,0,0,3.11,1l-.86,1.28a16.35,16.35,0,0,1-2.69-.9c-1.5-.59-2.35-.42-3.13.67l-.78,1.17,4.13,2.76-.83,1.23Zm5.16,1.67L23,42.51c.88-1.32.72-2.63-.37-3.36-1.24-.83-2.37-.3-3.24,1a6.39,6.39,0,0,0-.71,1.29Z" transform="translate(-1.92 -6.1)"/><path class="cls-1" d="M32.53,31.91l-3,3.26,3,2.82,3.38-3.65.91.84-4.39,4.74L24,32.12l4.22-4.54.9.84L26,31.87l2.66,2.47,3-3.26Z" transform="translate(-1.92 -6.1)"/><path class="cls-1" d="M32.07,24.08l4.83-3.85.77,1L34,24.12l2.38,3,3.39-2.69.76,1-3.39,2.69,3.23,4.06-1.16.93Z" transform="translate(-1.92 -6.1)"/><path class="cls-1" d="M45.52,24l.79,3.71L45,28.43,42.6,16.56l1.54-.89,9.14,8-1.37.79L49,21.91Zm2.68-2.89-2.64-2.28c-.59-.53-1.08-1-1.56-1.52l0,0c.19.67.39,1.36.55,2.08l.68,3.44Z" transform="translate(-1.92 -6.1)"/><path class="cls-1" d="M63.11,19.49A7.34,7.34,0,0,1,60.46,21c-3,1.11-6,0-7.29-3.51a5.68,5.68,0,0,1,3.55-7.7,6.43,6.43,0,0,1,2.73-.46l.07,1.26a5.38,5.38,0,0,0-2.33.35c-2.53.92-3.61,3.14-2.57,6,1,2.63,3.09,3.76,5.69,2.81a6,6,0,0,0,2.12-1.28Z" transform="translate(-1.92 -6.1)"/><path class="cls-1" d="M73.71,17.39a7.41,7.41,0,0,1-2.88,1.07c-3.18.58-5.93-1-6.6-4.7a5.69,5.69,0,0,1,4.81-7,6.28,6.28,0,0,1,2.77,0L71.66,8a5.46,5.46,0,0,0-2.35,0c-2.64.48-4.09,2.49-3.55,5.45.5,2.76,2.41,4.23,5.14,3.73a5.92,5.92,0,0,0,2.3-.89Z" transform="translate(-1.92 -6.1)"/><path class="cls-1" d="M77.88,6.1l.57,11.44L77,17.62,76.39,6.17Z" transform="translate(-1.92 -6.1)"/><path class="cls-1" d="M92.63,12.45c-.37,3.92-2.95,5.78-5.86,5.51s-4.9-2.82-4.58-6.27C82.53,8.08,85,5.91,88,6.2S92.94,9.06,92.63,12.45Zm-8.88-.65c-.23,2.44.89,4.75,3.21,5s3.86-1.81,4.1-4.4c.22-2.27-.75-4.75-3.2-5S84,9.31,83.75,11.8Z" transform="translate(-1.92 -6.1)"/><path class="cls-1" d="M95.08,18.94,98.39,8l1.55.47,1.85,6.6a31,31,0,0,1,.88,4.17h0c.31-1.5.68-2.85,1.2-4.55l1.38-4.6,1.33.4-3.3,11L101.89,21l-1.81-6.61a37,37,0,0,1-.94-4.29h0c-.33,1.41-.71,2.74-1.26,4.55l-1.41,4.7Z" transform="translate(-1.92 -6.1)"/><path class="cls-1" d="M110.11,20.56l-2.72,2.64L106,22.48l8.77-8.34,1.58.83-1.85,12-1.41-.74.59-3.76Zm3.87.72.53-3.45c.12-.78.29-1.46.44-2.13h0c-.46.51-.94,1-1.47,1.57l-2.54,2.41Z" transform="translate(-1.92 -6.1)"/><path class="cls-1" d="M123.81,19.67a15.13,15.13,0,0,1,2.41,1.54A4.78,4.78,0,0,1,128.28,24a2.88,2.88,0,0,1-.62,2.28,3,3,0,0,1-3.5,1l0,0a2.94,2.94,0,0,1-.08,2.87,19.49,19.49,0,0,0-1.23,3l-1.21-.94a15.71,15.71,0,0,1,1.07-2.63c.69-1.45.57-2.31-.46-3.17l-1.11-.85-3,3.93-1.17-.9Zm-2,5,1.2.92c1.26,1,2.58.9,3.38-.14s.45-2.35-.78-3.3a6.23,6.23,0,0,0-1.25-.79Z" transform="translate(-1.92 -6.1)"/><path class="cls-1" d="M134.1,28.25,126,36.39l-1.06-1,8.07-8.13Z" transform="translate(-1.92 -6.1)"/><path class="cls-1" d="M132.77,38.46l-3.57,1.25-.94-1.21,11.46-3.9L140.8,36,134.11,46.1l-1-1.26,2.11-3.17ZM136,40.73l1.92-2.91c.45-.65.88-1.2,1.3-1.74l0,0c-.63.28-1.3.56-2,.81L133.87,38Z" transform="translate(-1.92 -6.1)"/><path class="cls-1" d="M45.76,141.61a14.93,14.93,0,0,1,2.52,1.06,4.56,4.56,0,0,1,2.3,2.23,2.93,2.93,0,0,1-.21,2.48,3.23,3.23,0,0,1-1.84,1.69,4.52,4.52,0,0,1-3.52-.49,4.64,4.64,0,0,1-1-.62l-2,3.9-1.26-.65Zm-1.19,5.33a4,4,0,0,0,1,.65c1.52.8,2.83.53,3.52-.8s.08-2.39-1.29-3.11a7.29,7.29,0,0,0-1.24-.52Z" transform="translate(-1.92 -6.1)"/><path class="cls-1" d="M53.82,145.63a14.71,14.71,0,0,1,2.64.72,4.47,4.47,0,0,1,2.67,1.94,2.77,2.77,0,0,1,.09,2.25,2.89,2.89,0,0,1-2.9,1.91l0,0a2.77,2.77,0,0,1,.75,2.64,18.6,18.6,0,0,0-.25,3.11l-1.37-.5a13.66,13.66,0,0,1,.22-2.71c.21-1.53-.14-2.28-1.33-2.76l-1.26-.46-1.64,4.46-1.32-.49Zm-.39,5.17,1.36.5c1.42.52,2.6.08,3-1.1.49-1.34-.26-2.27-1.66-2.79a6.36,6.36,0,0,0-1.36-.36Z" transform="translate(-1.92 -6.1)"/><path class="cls-1" d="M70.5,155.65c-.76,3.68-3.41,5.19-6.15,4.62s-4.37-3.19-3.7-6.44c.7-3.4,3.27-5.2,6.13-4.61S71.16,152.46,70.5,155.65Zm-8.38-1.55c-.47,2.3.35,4.61,2.54,5.06s3.86-1.31,4.36-3.75c.44-2.14-.22-4.6-2.52-5.08S62.61,151.75,62.12,154.1Z" transform="translate(-1.92 -6.1)"/><path class="cls-1" d="M81.5,161.4a9.86,9.86,0,0,1-3.39.45,5.14,5.14,0,0,1-5.37-5.77c.15-3.26,2.51-5.55,6.18-5.39a6.84,6.84,0,0,1,2.71.63l-.4,1.14a5.49,5.49,0,0,0-2.4-.58,4.09,4.09,0,0,0-4.6,4.2c-.12,2.77,1.47,4.49,4,4.61a4.56,4.56,0,0,0,1.89-.21l.15-3.27-2.22-.1,0-1.13,3.61.16Z" transform="translate(-1.92 -6.1)"/><path class="cls-1" d="M91.47,161.19,86.8,150.9l1.48-.27,2.26,5.23c.56,1.29,1.08,2.58,1.46,3.59h0c0-1.1.09-2.45.21-3.9l.47-5.7,1.44-.26,2.3,5.23c.54,1.24,1.05,2.45,1.42,3.56h0c0-1.22.09-2.47.18-3.87l.45-5.7,1.43-.26-1.12,11.34-1.46.26L95,154.76a33.47,33.47,0,0,1-1.35-3.4h0a32,32,0,0,1-.2,3.67l-.52,5.89Z" transform="translate(-1.92 -6.1)"/><path class="cls-1" d="M108.73,151.43l-4,1.41,1.31,3.73,4.48-1.57.4,1.11-5.83,2-3.63-10.35,5.59-2,.39,1.11-4.25,1.49,1.15,3.28,4-1.41Z" transform="translate(-1.92 -6.1)"/><path class="cls-1" d="M109.31,145.05a12.84,12.84,0,0,1,2.21-1.36,4.5,4.5,0,0,1,3-.64,2.33,2.33,0,0,1,1.68,1.33,2.59,2.59,0,0,1-.58,3l0,0a2.8,2.8,0,0,1,3.25,1.45,2.88,2.88,0,0,1,.14,2.37c-.36,1-1.32,1.81-2.93,2.61a20.74,20.74,0,0,1-2,.88Zm3.27,3.39,1.16-.58c1.33-.66,1.76-1.76,1.29-2.71-.57-1.14-1.66-1.17-3-.53a6.23,6.23,0,0,0-1.08.66Zm2.34,4.69a5.84,5.84,0,0,0,1.1-.47c1.32-.65,2.29-1.74,1.57-3.16s-2.1-1.32-3.48-.63l-1,.52Z" transform="translate(-1.92 -6.1)"/><polygon class="cls-1" points="13.83 42.88 15.97 47.21 20.75 47.91 17.29 51.28 18.11 56.05 13.83 53.8 9.55 56.05 10.37 51.28 6.9 47.91 11.69 47.21 13.83 42.88"/><polygon class="cls-1" points="11.11 64.43 13.63 68.56 18.46 68.82 15.31 72.5 16.56 77.17 12.09 75.31 8.03 77.94 8.41 73.12 4.66 70.07 9.37 68.95 11.11 64.43"/><polygon class="cls-1" points="144.92 42.88 147.06 47.21 151.85 47.91 148.39 51.28 149.21 56.05 144.92 53.8 140.64 56.05 141.46 51.28 138 47.91 142.78 47.21 144.92 42.88"/><polygon class="cls-1" points="149.34 64.33 150.91 68.9 155.56 70.2 151.7 73.11 151.9 77.94 147.94 75.16 143.41 76.84 144.83 72.22 141.83 68.43 146.66 68.35 149.34 64.33"/></g></g></svg>